# xmcd CD database file
#
# Track frame offsets:
#	150
#	11492
#	21156
#	31505
#	43870
#	52927
#	67058
#	77732
#	89242
#	101146
#
# Disc length: 1475 seconds
#
# Revision: 4
# Processed by: cddbd v1.5.1PL0 Copyright (c) Steve Scherf et al.
# Submitted via: CDex 1.51
#
DISCID=7c05c10a
DTITLE=Canned Heat - Big Road Blues
DYEAR=1997
DGENRE=Blues
TTITLE0=Spoonful
TTITLE1=Big Road Blues
TTITLE2=Rollin' And Tumblin' (Part 1)
TTITLE3=Got My Mojo Working
TTITLE4=Pretty Thing
TTITLE5=Louise
TTITLE6=Dimples
TTITLE7=Can't Hold On
TTITLE8=Straight Ahead
TTITLE9=Rollin' And Tumbiln' (Part 2)
EXTD=YEAR: 1997
EXTT0=
EXTT1=
EXTT2=
EXTT3=
EXTT4=
EXTT5=
EXTT6=
EXTT7=
EXTT8=
EXTT9=
PLAYORDER=
